# xmcd CD database file
#
# Track frame offsets:
#	150
#	9866
#	22399
#	28692
#	41593
#	50998
#	62593
#	75126
#	90062
#	95316
#	110904
#	120811
#	132195
#	141645
#	157017
#	165444
#	180401
#	184782
#	196442
#	207621
#	220998
#	231766
#	243723
#	253600
#	264910
#	276068
#	288449
#	299619
#	314568
#	323950
#	328030
#
# Disc length: 4489 seconds
#
# Revision: 0
# Processed by: cddbd v1.5.1PL2 Copyright (c) Steve Scherf et al.
# Submitted via: CDex 1.51
#
DISCID=ca11871f
DTITLE=Anselm Grün - Kämpfen und Lieben - Wei Männer zu sich selbst finden
DYEAR=2005
DGENRE=Hörbuch
TTITLE0=Intro - Männer (H.Grönemyer)
TTITLE1=Einführung: Diebeiden Pole des Mannes 
TTITLE2=Männer II (H.Grönemeyer) 
TTITLE3=Adam - Mann und Frau 
TTITLE4=Cheek to cheek (I.Berlin)
TTITLE5=Abrahm der Pilger 
TTITLE6=Solitude (D.Ellington)
TTITLE7=Isaak - der Vaterlose
TTITLE8=Sax Solo  (M.Babel)
TTITLE9=Jakob - der Vater
TTITLE10=Things ain't what they used  (M.Ellington)
TTITLE11=Josef - der Magier
TTITLE12=Black Orpheus (L.Bonfa)
TTITLE13=Mose  - der Anführer
TTITLE14=Sweet Gorgia Brown (M.Pinkard/M.Bernie)
TTITLE15=Simson - der Krieger
TTITLE16=Au Privave (CH. Parker)
TTITLE17=David - der König
TTITLE18=Make a joyful moise (Kirby Shaw)
TTITLE19=Salomo - der Liebhaber
TTITLE20=One for my baby (H.Arlen)
TTITLE21=Jona - der Schelm
TTITLE22=On the sunny side of the street (J.McHugh)
TTITLE23=Johannes der Täufer - der wilde Mann
TTITLE24=Moanin' (B.Timmons)
TTITLE25=Johannes - der Freund
TTITLE26=Misty (E. Garner)
TTITLE27=Jesus - der Heiler
TTITLE28=Sardust (H.Carmichael)
TTITLE29=Schlußwort
TTITLE30=Männer III (H.Grönemeyer) 
EXTD=YEAR: 2005
EXTT0=
EXTT1=
EXTT2=
EXTT3=
EXTT4=
EXTT5=
EXTT6=
EXTT7=
EXTT8=
EXTT9=
EXTT10=
EXTT11=
EXTT12=
EXTT13=
EXTT14=
EXTT15=
EXTT16=
EXTT17=
EXTT18=
EXTT19=
EXTT20=
EXTT21=
EXTT22=
EXTT23=
EXTT24=
EXTT25=
EXTT26=
EXTT27=
EXTT28=
EXTT29=
EXTT30=
PLAYORDER=
